<svg xmlns="http://www.w3.org/2000/svg" width="1024" height="1024" viewBox="0 0 1024 1024"><path fill="#8D939F" d="m489.873 246.007-.723-.074c-8.223-.794-34.763 1.026-40.606-.972 5.059-2.295 38.393 1.314 41.767-1.276 4.531-3.478 12.272-50.062 16.433-54.251-1.958 10.824-5.527 23.324-8.243 34.105-1.37 5.436-3.913 15.579-5.708 20.459 31.973-.027 67.734-.982 99.309-.008l7.918-29.031c1.668-6.307 4.288-17.743 7.122-23.491-.613 6.747-6.935 27.797-8.938 35.476-9.899 37.939-22.496 75.505-34.135 113.02q20.497.068 40.992-.195c10.498-.199 23.368-.691 33.813-.324.449-2.15.588-4.028 1.911-5.705 1.225 1.08.302 4.171.015 5.696 2.829-.052 11.539-.021 13.665-.72.702-1.562.711-2.008.969-3.653 1.058-.277 3.769 1.258 5.077 1.843l.287.746c-2.476.331-2.94-.361-4.6.723-.857 4.4-1.113 8.169-2.106 12.634 3.846.786 8.26 1.531 11.859 2.959-3.188.128-8.856-1.095-11.979-1.853l-1.866 8.289c5.545 6.947 16.174 17.409 22.535 24.011a4879 4879 0 0 0 42.899 44.02c6.815 6.932 16.525 16.335 22.376 23.74l-.142 1.554.785-.051 2.319 2.66-1.353.63c-1.57 1.623-12.913 27.132-14.871 31.26l-66.584 141.22c11.224-.058 20.589-.369 31.831 1.113-8.646 1.618-24.218.58-33.681.409a658 658 0 0 0-8.659 18.03h-1.21c2.304-4.268 5.886-13.19 7.985-17.972-12.902-1.002-30.908-.18-44.146-.14q-40.317-.029-80.635.351a1818 1818 0 0 1-28.448 58.069c-9.387 18.423-18.659 37.026-29.615 54.55-2.227 3.562-4.369 7.243-6.533 10.849l-24.623 41.21c-5.348 8.84-8.41 15.11-10.427 25.253-.613 3.087-3.281 16.685-5.13 18.355-.371-3.055 8.613-36.605 10.09-42.756l25.896-108.786c4.361-18.437 9.615-38.012 13.253-56.478-7.475-.832-29.321-.382-37.811-.398l-73.811.012c-1.477 7.464-6.631 24.805-8.91 32.796-3.733 13.09-9.554 37.226-14.697 49.031 1.447-8.15 4.879-19.804 7.16-28.121l15.123-53.336c-11.231.033-30.681.628-41.364-.568 9.831-1.391 28.165-.898 38.655-.895-4.819-11.161-10.732-23.035-15.804-34.292l-51.228-113.531c-1.448-3.178-10.474-23.752-11.901-24.434l-1.11-1.366c.791-1.072 1.41-1.686 2.311-2.653 1.01-.634 1.291-1.157 1.68-2.153 4.078-6.08 16.129-16.892 21.684-22.768 21.65-22.897 44.117-44.132 67.946-64.8l.756.139c1.656-.931 8.77-9.266 10.017-11.345 5.168 2.089 13.427-12.777 15.498-16.846l.433.205c-.071 2.195-.23 2.642-.802 4.804q21.563.024 43.124-.203c5.187-.025 17.291-.335 22.034.267a2598 2598 0 0 0 17.053-63.322c2.147-8.325 6.539-23.654 7.819-31.721M360.511 489.383c.066 13.101 4.151 28.673 6.538 41.719 3.503 19.154 11.034 38.144 15.69 57.104a155 155 0 0 0 2.391 8.319c12.942-.027 25.778-.065 38.714.374 6.895.234 14.678-.298 21.484.084 7.054 8.28 22.481 27.699 30.83 32.936 1.188-3.123 2.783-8.285 3.383-11.544a2593 2593 0 0 0 16.898-67.347c-26.654-1.032-56.711.307-83.88-.209-1.504 5.52-8.567 32.348-10.692 34.908-.721-2.463 34.937-132.201 36.12-145.034.305-3.309 4.495-14.731 3.814-18.607-3.577 1.116-12.155 3.761-15.006 5.908-12.317 9.278-25.463 21.745-36.682 32.453-8.116 7.746-22.83 20.789-29.602 28.936M536.87 415.22c1.017-.495 2.92-1.358 3.825-1.893 30.099-18.367 64.818-36.688 94.006-56.215.634-2.592 1.078-4.588 1.539-7.225l-1.802-.474-.23-.722-1.623-.098c1.754-.261 2.829-.198 4.135-1.474.381-1.812.563-1.057.007-2.516l-1.013-.253c-23.936 14.451-62.29 28.156-88.766 40.158-3.399 9.93-7.153 20.678-10.078 30.712m-38.006 133.504c3.078 1.213 5.074 1.105 8.338.588-3.243-1.398-4.832-1.194-8.338-.588m231.925-93.095c-2.908-2.025-16.41-1.36-20.453-.958 4.063 1.572 15.694 1.246 20.453.958M547.485 629.545c4.963-5.478 9.55-10.506 14.132-16.295 3.849-4.696 10.317-12.983 14.78-16.796 18.097-.72 38.984-1.542 56.979-1.188 6.6-21.934 14.805-43.145 20.939-65.361 4.912-17.788 7.404-26.435 7.201-45.077a920 920 0 0 1-22.999-23.864c-2.985-3.276-17.125-19.442-19.69-21.188-3.992 12.351-6.938 25.181-11.225 37.46-17.59 50.381-48.185 95.445-71.106 143.516-1.412 2.961-2.958 5.84-4.162 8.879 5.009-.038 10.154-.142 15.151-.086M291.404 454.698c4.005 1.365 17.833 1.164 22.338.665-4.295-1.35-17.729-1.225-22.338-.665m174.641 281.741c.874-2.36 2.635-6.337 1.581-8.642-1.254 2.335-2.807 6.079-1.581 8.642m127.375-316.23c-19.954 1.222-40.214 1.549-60.197 2.379-4.876 17.755-9.889 41.633-15.54 58.5l25.192-.067c17.116-.034 46.02-.932 62.213.6 2.505-9.544 5.429-19.236 8.44-28.634 1.254-3.913 3.052-10.589 4.502-14.25-5.392-5.603-10.937-11.406-17.228-16.032-2.772-2.038-3.857-2.956-7.382-2.496"/><path fill="#4669fe" d="M527.759 390.916c.712-.094.305-.128 1.172.36.079 2.685-6.992 24.045-8.166 27.759l-25.715 80.433 84.126-.874c-4.354 10.096-11.24 23.11-16.241 33.006l-34.524 67.806-43.325 88.207c-1.864 3.704-6.815 15.497-8.716 17.536-.247-5.105 7.066-32.196 8.794-39.02l17.11-67.823c5.361-21.728 9.665-43.578 15.132-65.335l-86.397.448c2.111-14.418 7.137-31.653 10.957-45.878a2923 2923 0 0 1 19.885-71.193c21.779-8.596 44.44-16.637 65.908-25.432"/><path fill="#8D939F" fill-opacity=".988" d="M403.228 524.903q1.78.159 3.55.399c2.549.359 4.75 1.335 6.053 3.647l-.366-.792.096 1.032c-2.225.304-3.399-3.03-7.469-2.785-.85 1.319-.598.563-.23 2.507 2.746 1.547 3.76 1.44 6.805 2.111-3.04 2.978-9.381 1.094-8.439-6.119"/><path fill="#8D939F" d="M387.408 542.025c3.207.458 7.547 1.328 10.251 3.023l.146 1.079c-3.289-1.059-4.54-1.042-8.016-1.252-1.308-.079-1.771-1.662-2.381-2.85"/><path fill="#8D939F" d="M401.327 533.467c3.571.999 6.856.904 8.513 4.39-3.331-1.761-3.835-1.311-7.554-1.261-1.166-1.149-.783-.975-.959-3.129"/><path fill="#8D939F" fill-opacity=".988" d="M405.163 518.958c2.559.612 5.395 1.186 7.486 2.695l.058.787c-1.876-.491-4.009-.556-6.185-1.016-1.449-1.262-.978-.488-1.359-2.466"/><path fill="#4669fe" d="m500.249 260.07 74.775-.165c-2.566 8.654-6.693 19.579-9.686 28.317a4226 4226 0 0 0-15.38 46.182l-1.831 6.118-67.909-.132c1.274-3.447 2.302-6.975 3.25-10.524 6.18-23.131 11.188-46.515 16.781-69.796"/><path fill="#8D939F" d="M589.976 428.438c7.667.329 8.34 7.504 4.576 12.588-7.469-1.203-8.493-6.95-4.576-12.588"/><path fill="#8D939F" d="m581.028 431.131 1.462.363c1.877 1.809 3.837 8.19 1.934 10.399l-.955-.52c-.258-1.899-.525-5.207-1.33-6.792l-2.356.418-.489-.529c.122-1.765.557-2.015 1.734-3.339"/><path fill="#dcdcd9" fill-opacity=".008" d="M710.336 454.671c4.043-.402 17.545-1.067 20.453.958-4.759.288-16.39.614-20.453-.958"/><path fill="#dcdcd9" fill-opacity=".008" d="M291.404 454.698c4.609-.56 18.043-.685 22.338.665-4.505.499-18.333.7-22.338-.665"/><path fill="#dcdcd9" fill-opacity=".012" d="M467.626 727.797c1.054 2.305-.707 6.282-1.581 8.642-1.226-2.563.327-6.307 1.581-8.642"/><path fill="#dcdcd9" fill-opacity=".024" d="M498.864 548.724c3.506-.606 5.095-.81 8.338.588-3.264.517-5.26.625-8.338-.588"/><path fill="#8D939F" d="M611.421 244.751c3.656-.64 92.666-.605 95.117.072l.213.86c-11.353.862-91.713.788-95.33-.932"/><path fill="#8D939F" fill-opacity=".988" d="M739.916 452.175c4.132-8.119 33.234-71.368 35.763-72.245-7.179 19.334-18.468 38.739-26.761 57.733-2.328 5.332-6.048 10.634-8.359 16.015l-.785.051z"/><path fill="#8D939F" fill-opacity=".976" d="M648.351 649h1.21c-9.265 20.938-19.55 41.656-29.301 62.384-3.278 6.97-7.167 15.805-11.543 22.014 2.481-8.127 10.896-24.433 14.97-32.744A1545 1545 0 0 0 648.351 649"/><path fill="#8D939F" fill-opacity=".988" d="M388.048 322.374c-.342 4.59-1.804 9.823-2.907 14.358q3.909 1.393 7.834 2.733c-2.705-.123-5.543-.471-8.248-.748-.922 3.251-3.818 9.974-2.361 12.773.697.347 1.1.563 1.776.976l.572.357c-1.247 2.079-8.361 10.414-10.017 11.345l-.756-.139c.39-.736 2.09-2.204 2.773-3.632 1.346-2.816 2.205-5.647 3.386-8.553-3.275-.458-7.848-1.029-10.782-2.334l-.146-.281 1.106-.183-.067.739.588-.711c3.491.334 5.932 1.057 9.239 2.023.585-2.307 3.087-10.99 2.494-12.598-1.2-.536-1.571-.526-2.334-1.538l.284-.65 2.559-.067c.976-.863 4.151-11.589 5.007-13.87"/><path fill="#8D939F" d="M676.827 607.56c6.626-.515 14.547.865 9.503 9.288-5.31-.238-15.028-1.858-9.503-9.288m8.333 7.23c.546-2.534.798-1.878-.045-3.877-2.036-1.868-5-1.627-7.647-1.491-.907 4.431 4.277 5.097 7.692 5.368"/><path fill="#8D939F" d="M681.588 594.956c6.593.005 14.471 1.212 9.475 9.594-6.111-.145-13.637-1.87-9.475-9.594m8.817 7.804c.286-5.995-3.154-5.9-8.373-5.865.621 4.443 4.305 5.516 8.373 5.865"/><path fill="#8D939F" fill-opacity=".988" d="M625.401 634.337c8.718.579 7.797 7.413 3.922 12.949-6.155.818-5.65-3.476-6.096-8.191a150 150 0 0 1 2.174-4.758m3.176 11.511c1.52-3.778 2.71-8.372-1.984-10.203-1.858 3.355-2.518 7.795.899 10.35z"/><path fill="#8D939F" fill-opacity=".976" d="M671.496 339.201c11.171-.185 23.32.088 34.523.049 5.805-.02 27.075-.58 32.259.339-.851.727-1.205.502-2.587.626-7.059.188-63.712.989-66.453-.15.875-.978.467-.543 2.258-.864"/><path fill="#8D939F" fill-opacity=".976" d="M282.631 453.75a1219 1219 0 0 1-18.466-38.435c-2.3-5.025-6.315-13.304-8.128-18.35l.28-.465c3.581 3.387 14.568 31.681 18.201 37.361 2.384 3.728 5.908 14.999 8.764 18.098l1.029-.362c-.389.996-.67 1.519-1.68 2.153"/><path fill="#8D939F" d="M451.266 311.385c4.225.154 5.167-.129 8.319 2.713 1.198 2.914-.045 4.102-2.566 5.496-3.52-.032-9.281-.188-9.161-4.963.879-1.9 1.534-2.068 3.408-3.246m5.58 6.533c.65-1.808.608-.933.294-2.705-1.709-1.938-4.285-1.972-6.874-2.347-.645 2.422-.821 1.641.055 3.513 1.795 1.484 4.234 1.633 6.525 1.539"/><path fill="#8D939F" fill-opacity=".969" d="m280.32 456.403 1.11 1.366a1565 1565 0 0 0-18.031 18.765c-4.311 4.558-9.414 10.366-14.391 14.048.51-2.563 27.265-29.717 31.312-34.179"/><path fill="#8D939F" fill-opacity=".91" d="M742.878 456.338c9.225 11.017 23.514 24.176 31.443 34.884l-.215.16c-11.227-9.274-22.472-25.305-32.581-34.414z"/><path fill="#8D939F" fill-opacity=".976" d="m488.159 727.216.97 1.027c.437 1.752-.411 3.696-.964 5.507 2.472.67 3.297.862 5.569 1.947l.149.547c-2.346.309-4.272-.408-6.605-.994l-1.907 6.134-.652 1.326-.485-.149c.438-2.36 1.838-6.494.053-8.221l-1.978.389-.63-.544.081-.866c1.971-.75 2.83.579 4.696-.058a164 164 0 0 0 1.703-6.045"/><path fill="#8D939F" d="M617.64 634.374c2.598 2.672 2.347 8.859.653 11.955l-.726.005-.345-2.065c-.025-1.693.03-2.632-.365-4.306-1.034-.092-.643.1-1.254-.366l1.332-1.069-.042-.872-2.115.268-.363-.441c.761-1.899 1.337-1.997 3.225-3.109"/><path fill="#8D939F" d="M751.461 455.194c3.286-.558 17.682-.624 20.73.14l-.338.694c-4.247.153-17.281 1.162-20.446-.046z"/><path fill="#8D939F" d="M638.665 633.832c1.361 2.242 1.521 11.825-.318 13.185l-.261-.921c-.148-1.844-.488-5.819-.898-7.719-.196-.909-.524.586-1.542-1.217.771-1.715 1.565-2.147 3.019-3.328"/><path fill="#8D939F" d="M684.546 585.754c3.256.583 9.495 1.894 11.677 4.374l-.148 1.194c-1.464-.206-7.154-2.271-9.542-2.366-1.272-.051-1.611-2.024-1.987-3.202"/><path fill="#8D939F" d="M446.074 322.993c2.402.03 9.291.634 10.814 2.37l-.101.893-.897-.064c-4.145-.61-3.724-.637-7.656.539-1.56-.859-1.32-1.519-2.16-3.738"/><path fill="#8D939F" d="M450.004 303.558c3.492.469 7.028.958 10.248 2.438l-.022.77-1.339.057c-5.011-1.094-4.741.4-7.896.153-.618-1.557-.712-1.698-.991-3.418"/></svg>