<svg width="102" height="27" viewBox="0 0 102 27" fill="none" xmlns="http://www.w3.org/2000/svg">
<path d="M0 0.24H3V7.92H0V0.24Z" fill="#8D939F"/>
<path d="M6.82706 6.756V4.956H15.0351V6.756H6.82706ZM4.13906 7.92L9.28706 0.24H12.6231L17.8191 7.92H14.5191L10.0671 1.044H11.8551L7.43906 7.92H4.13906Z" fill="#8D939F"/>
<path d="M18.4809 2.04H21.3609V7.92H18.4809V2.04ZM25.6809 1.86C26.1529 1.86 26.6089 1.912 27.0489 2.016C27.4889 2.112 27.8809 2.28 28.2249 2.52C28.5769 2.76 28.8569 3.088 29.0649 3.504C29.2729 3.92 29.3769 4.444 29.3769 5.076V7.92H26.4969V5.436C26.4969 4.836 26.3409 4.412 26.0289 4.164C25.7169 3.908 25.1529 3.78 24.3369 3.78C23.9049 3.78 23.4849 3.828 23.0769 3.924C22.6769 4.02 22.3169 4.136 21.9969 4.272C21.6769 4.4 21.4249 4.528 21.2409 4.656L21.2169 4.2C21.2489 4.056 21.3569 3.856 21.5409 3.6C21.7329 3.336 22.0089 3.072 22.3689 2.808C22.7289 2.544 23.1809 2.32 23.7249 2.136C24.2769 1.952 24.9289 1.86 25.6809 1.86ZM33.5529 1.86C34.0249 1.86 34.4809 1.912 34.9209 2.016C35.3609 2.112 35.7529 2.28 36.0969 2.52C36.4489 2.76 36.7289 3.088 36.9369 3.504C37.1449 3.92 37.2489 4.444 37.2489 5.076V7.92H34.3689V5.436C34.3689 4.836 34.2129 4.412 33.9009 4.164C33.5889 3.908 33.0249 3.78 32.2089 3.78C31.7769 3.78 31.3569 3.828 30.9489 3.924C30.5489 4.02 30.1889 4.136 29.8689 4.272C29.5489 4.4 29.2969 4.528 29.1129 4.656L29.0889 4.08C29.1209 3.96 29.2409 3.78 29.4489 3.54C29.6569 3.3 29.9489 3.052 30.3249 2.796C30.7089 2.54 31.1689 2.32 31.7049 2.136C32.2489 1.952 32.8649 1.86 33.5529 1.86Z" fill="#8D939F"/>
<path d="M40.6005 6.756V4.956H48.8085V6.756H40.6005ZM37.9125 7.92L43.0605 0.24H46.3965L51.5925 7.92H48.2925L43.8405 1.044H45.6285L41.2125 7.92H37.9125Z" fill="#8D939F"/>
<path d="M52.5544 0.24H65.2744V2.52L56.5384 6.132L56.4424 5.64H65.2744V7.92H52.5544V5.64L61.3264 2.028L61.4224 2.52H52.5544V0.24Z" fill="#8D939F"/>
<path d="M67.1367 0.24H70.1367V7.92H67.1367V0.24Z" fill="#8D939F"/>
<path d="M84.0318 5.568L82.9158 6.204V0.24H85.9158V7.92H82.9158L73.8798 2.688L74.9958 2.04V7.92H71.9958V0.24H74.9958L84.0318 5.568Z" fill="#8D939F"/>
<path d="M94.5894 8.16C93.5494 8.16 92.5934 8.096 91.7214 7.968C90.8574 7.848 90.1054 7.64 89.4654 7.344C88.8334 7.04 88.3414 6.628 87.9894 6.108C87.6454 5.588 87.4734 4.932 87.4734 4.14C87.4734 3.348 87.6494 2.688 88.0014 2.16C88.3534 1.624 88.8574 1.2 89.5134 0.888C90.1774 0.568 90.9654 0.34 91.8774 0.204C92.7974 0.0680001 93.8214 0 94.9494 0C96.4294 0 97.6694 0.136 98.6694 0.408C99.6774 0.68 100.445 1.068 100.973 1.572C101.501 2.068 101.785 2.66 101.825 3.348H98.7054C98.6094 3.172 98.4334 3.004 98.1774 2.844C97.9214 2.676 97.5374 2.54 97.0254 2.436C96.5134 2.332 95.8214 2.28 94.9494 2.28C93.9254 2.28 93.0934 2.344 92.4534 2.472C91.8134 2.592 91.3454 2.788 91.0494 3.06C90.7534 3.332 90.6054 3.692 90.6054 4.14C90.6054 4.532 90.7574 4.856 91.0614 5.112C91.3654 5.368 91.8534 5.56 92.5254 5.688C93.1974 5.816 94.0854 5.88 95.1894 5.88C95.9654 5.88 96.6374 5.848 97.2054 5.784C97.7814 5.712 98.3014 5.604 98.7654 5.46C99.2374 5.316 99.7054 5.136 100.169 4.92L100.457 5.268C99.9614 6.204 99.2254 6.92 98.2494 7.416C97.2734 7.912 96.0534 8.16 94.5894 8.16ZM99.6414 7.92C99.6414 7.68 99.6734 7.408 99.7374 7.104C99.8014 6.8 99.8814 6.484 99.9774 6.156C100.081 5.82 100.181 5.504 100.277 5.208H95.5974V3.948H101.993V7.92H99.6414Z" fill="#8D939F"/>
<path d="M28.676 26.088C27.716 26.088 26.956 25.796 26.396 25.212C25.836 24.62 25.556 23.768 25.556 22.656V20.784C25.556 19.704 25.836 18.864 26.396 18.264C26.956 17.656 27.716 17.352 28.676 17.352C29.676 17.352 30.436 17.632 30.956 18.192C31.484 18.752 31.748 19.512 31.748 20.472V20.688H30.164V20.472C30.164 20.208 30.12 19.948 30.032 19.692C29.944 19.428 29.792 19.212 29.576 19.044C29.36 18.876 29.06 18.792 28.676 18.792C28.324 18.792 28.032 18.88 27.8 19.056C27.576 19.224 27.408 19.452 27.296 19.74C27.192 20.02 27.14 20.328 27.14 20.664V22.776C27.14 23.32 27.256 23.768 27.488 24.12C27.72 24.472 28.116 24.648 28.676 24.648C29.084 24.648 29.396 24.568 29.612 24.408C29.828 24.248 29.972 24.04 30.044 23.784C30.124 23.528 30.164 23.256 30.164 22.968V22.752H31.748V22.968C31.748 23.96 31.484 24.728 30.956 25.272C30.436 25.816 29.676 26.088 28.676 26.088Z" fill="#8D939F"/>
<path d="M35.9997 26.088C35.0397 26.088 34.2837 25.796 33.7317 25.212C33.1797 24.62 32.9037 23.768 32.9037 22.656V20.784C32.9037 19.704 33.1797 18.864 33.7317 18.264C34.2837 17.656 35.0397 17.352 35.9997 17.352C36.9597 17.352 37.7157 17.656 38.2677 18.264C38.8197 18.864 39.0957 19.704 39.0957 20.784V22.656C39.0957 23.768 38.8197 24.62 38.2677 25.212C37.7157 25.796 36.9597 26.088 35.9997 26.088ZM35.9997 24.648C36.5757 24.648 36.9717 24.472 37.1877 24.12C37.4037 23.768 37.5117 23.312 37.5117 22.752V20.688C37.5117 20.336 37.4597 20.016 37.3557 19.728C37.2517 19.44 37.0877 19.212 36.8637 19.044C36.6477 18.876 36.3597 18.792 35.9997 18.792C35.6397 18.792 35.3477 18.876 35.1237 19.044C34.8997 19.212 34.7357 19.44 34.6317 19.728C34.5357 20.016 34.4877 20.336 34.4877 20.688V22.752C34.4877 23.312 34.5957 23.768 34.8117 24.12C35.0277 24.472 35.4237 24.648 35.9997 24.648Z" fill="#8D939F"/>
<path d="M40.4073 25.92V17.52H43.5033L44.4873 25.128H44.7033V17.52H46.2873V25.92H43.1913L42.2073 18.312H41.9913V25.92H40.4073Z" fill="#8D939F"/>
<path d="M49.903 25.92V19.032H47.671V17.52H53.719V19.032H51.487V25.92H49.903Z" fill="#8D939F"/>
<path d="M55.3546 25.92V17.52H60.6586V19.032H56.9386V20.952H60.5146V22.464H56.9386V24.408H60.8026V25.92H55.3546Z" fill="#8D939F"/>
<path d="M62.4503 25.92V17.52H65.5463L66.5303 25.128H66.7463V17.52H68.3303V25.92H65.2343L64.2503 18.312H64.0343V25.92H62.4503Z" fill="#8D939F"/>
<path d="M71.9459 25.92V19.032H69.7139V17.52H75.7619V19.032H73.5299V25.92H71.9459Z" fill="#8D939F"/>
</svg>
